PathFileType	4	(X/Y/Z)	24_1_31_p1_0-172.trc
DataRate	CameraRate	NumFrames	NumMarkers	Units	OrigDataRate	OrigDataStartFrame	OrigNumFrames
60.0	60.0	6	27	m	60.0	86	173
Frame#	Time	RHip			RKnee			RAnkle			RBigToe			RSmallToe			RHeel			LHip			LKnee			LAnkle			LBigToe			LSmallToe			LHeel			Neck			Head			Nose			RShoulder			RElbow			RWrist			RThumb			RIndex			RPinky			LShoulder			LElbow			LWrist			LThumb			LIndex			LPinky			
		X1	Y1	Z1	X2	Y2	Z2	X3	Y3	Z3	X4	Y4	Z4	X5	Y5	Z5	X6	Y6	Z6	X7	Y7	Z7	X8	Y8	Z8	X9	Y9	Z9	X10	Y10	Z10	X11	Y11	Z11	X12	Y12	Z12	X13	Y13	Z13	X14	Y14	Z14	X15	Y15	Z15	X16	Y16	Z16	X17	Y17	Z17	X18	Y18	Z18	X19	Y19	Z19	X20	Y20	Z20	X21	Y21	Z21	X22	Y22	Z22	X23	Y23	Z23	X24	Y24	Z24	X25	Y25	Z25	X26	Y26	Z26	X27	Y27	Z27	
86	1.4333333333333333	0.4410445660802809	0.4940414142756483	0.7750914964045195	0.441154112685679	0.6102481687348126	1.2389505620428858	0.420475360141322	0.6512911384832193	1.692717960289756	0.414440719691431	0.5440791055259007	1.728454661686633	0.47106812047293284	0.5318035663698361	1.7077464250064873	0.3912591732219119	0.7184006469601175	1.746229768149251	0.23216978669823296	0.47991236413413096	0.7829328858350507	0.20227228836253242	0.5869343234132764	1.2513450931269179	0.20005165928338858	0.6624200022588467	1.7050813320119516	0.24619916537940295	0.47350565933653715	1.6994100638798297	0.1827391986331903	0.5348871017239144	1.7187950936386491	0.20058271197859018	0.6968890276235175	1.7466745061864675	0.3022164447783786	0.47830351254889436	0.25153566390691406	0.296654040739751	0.3931846153058709	0.030221973164776057	0.3175100583220503	0.3387458324651141	0.15338177226232916	0.45873646510372484	0.46601521753294395	0.32717756417339094	0.5269117258700472	0.3338191255715754	0.47786629966805355	0.49086992960176734	0.08103151088745421	0.4271854468908668	0.45481188984498566	-0.02954493878682784	0.3536717955870213	0.45291243817568694	-0.03928867427102032	0.38497605200621143	0.4509635343508061	-0.02428438413154859	0.4198967115609712	0.17156019560735988	0.4466189154692899	0.34375945133404895	0.14517309838168488	0.28883114224418416	0.5186761438767462	0.19733732757267045	0.06197406738189814	0.43342523758411294	0.2109209292383114	-0.004697616614269952	0.3562415062931174	0.20125786475775712	-0.029901273105917114	0.36374332559671163	0.21108765060473406	-0.007552923655414702	0.43478745338874275
87	1.45	0.4350733595615965	0.5058339994977584	0.7733305183437227	0.434923081810075	0.6259712353580633	1.2486004276864848	0.4204272824481986	0.6518836636476923	1.6929923175280615	0.4133121132925867	0.5456425830790271	1.7325057289922168	0.47092797646454587	0.5319316251861274	1.7073758820175853	0.39342898081378547	0.7379106581442743	1.7636890482410865	0.2279894699406691	0.4760624005013935	0.7782067073449731	0.20230442888132352	0.5869153083165539	1.2513722231996298	0.20063015615131274	0.6611016292006506	1.7087618981903923	0.2462502622412235	0.473769904146088	1.6995570478486646	0.18958358298987313	0.5209962909798856	1.7117635252465515	0.20048651929562206	0.6970326584223157	1.7466596435809565	0.3022235132746718	0.478327514331612	0.2515305465975216	0.29659401776888283	0.3933105770658791	0.030274669352678977	0.31752629835870566	0.33876393549164185	0.1533536586740631	0.45864648670468133	0.46609491945446635	0.3272999139358977	0.5271121503683084	0.3337005632176796	0.4781567034123571	0.4908276995598442	0.08124837608198412	0.4273340441055917	0.4548967213177405	-0.029623978692273744	0.3537571612471533	0.45321489390305897	-0.0383177716927002	0.3878667250351001	0.45104575119468343	-0.024336491179127787	0.4198463401863536	0.17148085228300514	0.44662774123859705	0.34365469453796005	0.1462293312661967	0.3006977094096592	0.5199179768140578	0.19743638817396886	0.06186881434159772	0.4334300376291537	0.21099999826688073	-0.004752804220811968	0.35623724426715137	0.2014546004542473	-0.030216209330063297	0.36384731898042866	0.2161503562599676	-0.01655344354337673	0.4339825643424409
88	1.4666666666666666	0.4355808068248072	0.5076697503935562	0.7777992947078687	0.4285198737572306	0.6093074649197178	1.248263994412617	0.4221504312574072	0.6674303120186436	1.7041210140086742	0.4133552669123659	0.5455928504942761	1.732472803743508	0.4645865172904642	0.5476743677928723	1.7193183561988152	0.3862140683837518	0.7528939397466688	1.7662704801764315	0.22820288632074442	0.47820585684372496	0.7830164861189086	0.20193758466585848	0.5845245206880876	1.246316743984529	0.20116048962014396	0.6618637119789634	1.7004766025210627	0.2481214246031807	0.4874019077460216	1.7057941968620722	0.18294795901012936	0.534990490646366	1.7190258577460378	0.19435666816464103	0.7120842182072593	1.7494575891583117	0.3020989519712255	0.4786037505277516	0.2515651450346094	0.30049808263288413	0.3949422767221494	0.030137087419369282	0.31549961516811253	0.3273644410390875	0.15391036141777037	0.45872932513641484	0.4662273841488863	0.3271960600575062	0.5274074072642625	0.3352514116992735	0.48186714138204695	0.4913384270644148	0.07985891433875597	0.4275632408320678	0.45499636064216203	-0.029842879688549484	0.3557468641930482	0.45349416501019935	-0.038614617944057524	0.3851181600532859	0.45155008911287237	-0.02523895053277144	0.41523352212003317	0.17141775354544378	0.44868863068070386	0.34766484624097266	0.14631448987175513	0.30248162541270945	0.5238140755619882	0.20239716169919486	0.05251821511525128	0.43555943550926707	0.21110026630301554	-0.004482809170491832	0.3564371815442491	0.1968469685213465	-0.021213432932741163	0.3646937860038114	0.21633687663064854	-0.015101773194529398	0.43729842374686606
89	1.4833333333333334	0.435942658569534	0.5069086256559124	0.7816119192017004	0.42915620108292835	0.6116335311558246	1.2533245896334515	0.4221759082591825	0.6680748233388781	1.70391668704025	0.4133178673439574	0.5454357728556928	1.731958781905672	0.4699012482982838	0.5327340616320169	1.7111625315570569	0.3862469703072781	0.754049934905775	1.765268078275569	0.22772573876581859	0.47853960238504645	0.7866087966703249	0.20241315044980662	0.5869232781951018	1.2514795313917486	0.2011912143195047	0.6620057733955461	1.7004937876142068	0.2482450444570023	0.48753261288059324	1.7058174724818473	0.18971797523179643	0.5206853676669331	1.7114699956725805	0.19432995207478404	0.7124806001613423	1.7493300108972991	0.30193777354414314	0.47881686685306635	0.2547355917635065	0.2965754062845979	0.3932635737022819	0.030529788604926767	0.31744916548597935	0.338617558490376	0.15327516719080983	0.4588325970220237	0.46588874681104364	0.327154694767784	0.5274679298177746	0.33573201729385643	0.48223927147393675	0.4911447802536325	0.0798771660756517	0.4305023346446144	0.4548428582463053	-0.029836106987114128	0.3557001465126729	0.45339322267716	-0.03858911549694313	0.3852817359028794	0.4518279173926392	-0.025667782970183756	0.4185165079206246	0.17147634778525336	0.448547738241961	0.34783302124588134	0.14874742745624844	0.2960891891359739	0.5267447611806801	0.2025134748247604	0.054002765112894764	0.4390781233464965	0.2159504347057858	0.005545194445952081	0.3600133964997125	0.20190598228757847	-0.00952164835875961	0.37051792482864754	0.2181378949745451	-0.006898409407416031	0.4410395561946766
90	1.5	0.43500182632113626	0.5053552894810899	0.7810816455702759	0.4284796405805557	0.6089165915374476	1.2480764954037504	0.4222328645177182	0.6682116893379462	1.7039548555948292	0.4134191325423052	0.5455821507825642	1.7319551625285514	0.4740165805916593	0.5354550301594173	1.7074222834880393	0.386243987002941	0.753992453996943	1.7656931054076779	0.22778753078518013	0.47574269701544847	0.7855316305403447	0.2020138195669294	0.5844440809764457	1.2462374814248776	0.2017571078653835	0.6604044556943919	1.704165709211485	0.24831912890599703	0.48748326138980425	1.705752537175605	0.18952334622970746	0.5205624463806366	1.7110216154375146	0.19434972229229197	0.7124012753624972	1.7495705963896142	0.3021632406379996	0.4784487621453646	0.25152269833011326	0.29660192950007325	0.3930773542236239	0.03043359887026789	0.3154649077566202	0.3274135491769668	0.15376384984952898	0.45369589774459157	0.47966695488194844	0.3277140104547556	0.527321455271558	0.3356348244999322	0.4820667769443764	0.4909593143856618	0.08026840476700925	0.4308430643335352	0.4547331556822142	-0.02984689900960583	0.3557620245784443	0.4531515166159562	-0.03850651432688876	0.3881889938066464	0.45169477397449637	-0.023575110980139206	0.42459315885645665	0.1727474467986094	0.4617679460557038	0.34793073654872336	0.15013710585863133	0.3087598130167983	0.5310212206034223	0.19752458392191552	0.06286405642828759	0.44330695963116196	0.21591956014758337	0.005391248166346032	0.36231371152328673	0.20536668871660027	-0.026553989419721247	0.3700816237775777	0.21664781373164455	-0.01570239115775177	0.44072225292373396
91	1.5166666666666666	0.43495908485968104	0.5055010736423766	0.7811588548210211	0.4353834445473178	0.5955953157597336	1.24363428010515	0.42325819111853596	0.6668638963942519	1.6989385948656086	0.41342790879540553	0.5458714984979145	1.7320769460743684	0.47196325444134085	0.5496561901922092	1.7144582125968304	0.3925715761752934	0.7359819507395096	1.7577380159157687	0.22803769758496475	0.4777916907842355	0.7902932865851705	0.2024104378695903	0.5867114935903119	1.251405689889554	0.2018214826736039	0.6603670954846507	1.704110592950433	0.24629123862541594	0.473992115160458	1.6995885836403073	0.18966885463428754	0.5202112795840409	1.7107686278832344	0.19446952285714894	0.7121409019114817	1.7496324702717625	0.3020935924577007	0.47864101132959985	0.25154315474660366	0.2912433097719772	0.4049574044735382	0.029668890362100585	0.31547208104064717	0.32737859332212843	0.1537211636686704	0.45362766304652424	0.4798599593672566	0.3276663148292502	0.5272762632619346	0.3351269130866116	0.48175675147351715	0.490860663885732	0.08194281871333195	0.43734232796402656	0.453185201450793	-0.029975570304109526	0.36372704348335994	0.4533964522493723	-0.03743021549666121	0.39159258231915256	0.4475659949265566	-0.014951474277491121	0.4303261275099384	0.17137443966073432	0.446982263095406	0.3436915396811972	0.15068436090453638	0.3090784883335129	0.5274448321577927	0.19325905926189813	0.08424459246414016	0.44824434047738726	0.21594298337199672	0.0066840140443607905	0.36600177825746383	0.20709714902524648	-0.015662996754481573	0.3794767451382066	0.21780115818661022	-0.006432321880831233	0.44450932705107565
